<svg width="24" height="24" viewBox="0 0 24 24" fill="none" xmlns="http://www.w3.org/2000/svg">
<path d="M15 15L16.05 16.05L14.1 18H21V19.5H14.1L16.05 21.45L15 22.5L11.25 18.75L15 15ZM10.5 11.25H16.5V12.75H10.5V11.25ZM10.5 6H16.5V7.5H10.5V6Z" fill="#8E8EA9"/>
<path d="M9.75 21H6V18H7.5V16.5H6V12.75H7.5V11.25H6V7.5H7.5V6H6V3H19.5V15H21V3C21 2.175 20.325 1.5 19.5 1.5H6C5.175 1.5 4.5 2.175 4.5 3V6H3V7.5H4.5V11.25H3V12.75H4.5V16.5H3V18H4.5V21C4.5 21.825 5.175 22.5 6 22.5H9.75V21Z" fill="#8E8EA9"/>
</svg>
