<svg width="31" height="30" viewBox="0 0 31 30" fill="none" xmlns="http://www.w3.org/2000/svg">
<circle cx="15.0371" cy="15" r="15" fill="#F4932D"/>
<path d="M21.4287 10.8295C20.3264 10.4391 19.1632 10.1605 17.9682 10.0006C17.9573 9.99916 17.9462 10.0004 17.9363 10.004C17.9264 10.0077 17.9183 10.0137 17.9129 10.0211C17.7631 10.2261 17.5974 10.4942 17.4816 10.7041C16.1934 10.5532 14.8831 10.5532 13.595 10.7041C13.4658 10.4702 13.3196 10.2422 13.1572 10.0211C13.1518 10.0137 13.1436 10.0079 13.1337 10.0042C13.1239 10.0006 13.1128 9.99928 13.102 10.0006C11.9067 10.1596 10.7433 10.4384 9.64145 10.8295C9.63202 10.8323 9.62413 10.8375 9.61914 10.8443C7.41554 13.3853 6.81098 15.864 7.10741 18.3115C7.10848 18.323 7.11804 18.3344 7.12973 18.3418C8.41292 19.0754 9.8482 19.6354 11.3744 19.9981C11.3851 20.0007 11.3967 20.0006 11.4074 19.9978C11.4181 19.995 11.4274 19.9897 11.4339 19.9825C11.7611 19.6381 12.0522 19.2749 12.303 18.8928C12.3082 18.885 12.31 18.876 12.3081 18.8673C12.3062 18.8586 12.3007 18.8505 12.2924 18.8444C12.2869 18.8404 12.2804 18.8374 12.2732 18.8354C11.8155 18.6997 11.3721 18.5365 10.9472 18.3476C10.9354 18.3424 10.9266 18.3339 10.9226 18.3238C10.9186 18.3137 10.9199 18.3028 10.926 18.2934C10.9296 18.2873 10.9351 18.282 10.9419 18.2779C11.0312 18.2262 11.1204 18.1721 11.2054 18.118C11.2129 18.1133 11.222 18.1103 11.2315 18.1093C11.241 18.1083 11.2508 18.1093 11.2596 18.1122C14.0423 19.0929 17.0544 19.0929 19.8031 18.1122C19.8123 18.1092 19.8224 18.1081 19.8323 18.1091C19.8422 18.1101 19.8516 18.1132 19.8594 18.118C19.9444 18.1721 20.0337 18.2262 20.1229 18.2779C20.1301 18.2819 20.1359 18.2873 20.1398 18.2936C20.1437 18.2998 20.1455 18.3067 20.1451 18.3136C20.1446 18.3205 20.142 18.3272 20.1374 18.3331C20.1328 18.3391 20.1263 18.344 20.1187 18.3476C19.6947 18.5383 19.2508 18.7012 18.7916 18.8346C18.7843 18.8367 18.7776 18.8399 18.7721 18.8442C18.7666 18.8484 18.7624 18.8536 18.7597 18.8592C18.7573 18.8647 18.7563 18.8705 18.7568 18.8763C18.7574 18.882 18.7595 18.8877 18.7629 18.8928C19.0179 19.2741 19.3101 19.6381 19.631 19.9825C19.6375 19.9897 19.6467 19.995 19.6574 19.9978C19.6681 20.0006 19.6797 20.0007 19.6905 19.9981C21.2192 19.6365 22.6568 19.0764 23.9415 18.3418C23.9479 18.3384 23.9533 18.3339 23.9571 18.3286C23.961 18.3234 23.9633 18.3175 23.9638 18.3115C24.3187 15.4819 23.3699 13.0237 21.45 10.8451C21.448 10.8415 21.4451 10.8383 21.4415 10.8356C21.4378 10.8329 21.4335 10.8308 21.4287 10.8295ZM12.7184 16.8208C11.8801 16.8208 11.1906 16.2272 11.1906 15.4991C11.1906 14.7702 11.8674 14.1765 12.7184 14.1765C13.5758 14.1765 14.259 14.7751 14.2463 15.4991C14.2463 16.2272 13.5695 16.8208 12.7184 16.8208ZM18.3666 16.8208C17.5294 16.8208 16.8387 16.2272 16.8387 15.4991C16.8387 14.7702 17.5156 14.1765 18.3666 14.1765C19.224 14.1765 19.9083 14.7751 19.8945 15.4991C19.8945 16.2272 19.224 16.8208 18.3666 16.8208Z" fill="white"/>
</svg>
