<svg width="158" height="158" viewBox="0 0 158 158" fill="none" xmlns="http://www.w3.org/2000/svg">
<g filter="url(#filter0_d_349_1032)">
<circle cx="79" cy="79" r="75" fill="white"/>
</g>
<g clip-path="url(#clip0_349_1032)">
<path d="M93.5833 52.75C95.1304 52.75 96.6142 53.3646 97.7081 54.4585C98.8021 55.5525 99.4167 57.0362 99.4167 58.5833V99.4167H102.333C103.107 99.4167 103.849 99.724 104.396 100.271C104.943 100.818 105.25 101.56 105.25 102.333C105.25 103.107 104.943 103.849 104.396 104.396C103.849 104.943 103.107 105.25 102.333 105.25H55.6667C54.8931 105.25 54.1513 104.943 53.6043 104.396C53.0573 103.849 52.75 103.107 52.75 102.333C52.75 101.56 53.0573 100.818 53.6043 100.271C54.1513 99.724 54.8931 99.4167 55.6667 99.4167H58.5833V58.5833C58.5833 57.0362 59.1979 55.5525 60.2919 54.4585C61.3858 53.3646 62.8696 52.75 64.4167 52.75H93.5833ZM93.5833 58.5833H64.4167V99.4167H93.5833V58.5833ZM86.2917 76.0833C86.8662 76.0833 87.4351 76.1965 87.9659 76.4164C88.4967 76.6362 88.979 76.9585 89.3853 77.3647C89.7915 77.771 90.1138 78.2533 90.3336 78.7841C90.5535 79.3149 90.6667 79.8838 90.6667 80.4583C90.6667 81.0329 90.5535 81.6018 90.3336 82.1326C90.1138 82.6634 89.7915 83.1457 89.3853 83.5519C88.979 83.9582 88.4967 84.2804 87.9659 84.5003C87.4351 84.7202 86.8662 84.8333 86.2917 84.8333C85.1313 84.8333 84.0185 84.3724 83.1981 83.5519C82.3776 82.7315 81.9167 81.6187 81.9167 80.4583C81.9167 79.298 82.3776 78.1852 83.1981 77.3647C84.0185 76.5443 85.1313 76.0833 86.2917 76.0833Z" fill="#5271FF"/>
</g>
<defs>
<filter id="filter0_d_349_1032" x="0" y="0" width="158" height="158" filterUnits="userSpaceOnUse" color-interpolation-filters="sRGB">
<feFlood flood-opacity="0" result="BackgroundImageFix"/>
<feColorMatrix in="SourceAlpha" type="matrix" values="0 0 0 0 0 0 0 0 0 0 0 0 0 0 0 0 0 0 127 0" result="hardAlpha"/>
<feOffset/>
<feGaussianBlur stdDeviation="2"/>
<feComposite in2="hardAlpha" operator="out"/>
<feColorMatrix type="matrix" values="0 0 0 0 0 0 0 0 0 0 0 0 0 0 0 0 0 0 0.25 0"/>
<feBlend mode="normal" in2="BackgroundImageFix" result="effect1_dropShadow_349_1032"/>
<feBlend mode="normal" in="SourceGraphic" in2="effect1_dropShadow_349_1032" result="shape"/>
</filter>
<clipPath id="clip0_349_1032">
<rect width="70" height="70" fill="white" transform="translate(44 44)"/>
</clipPath>
</defs>
</svg>
