<svg width="27" height="27" viewBox="0 0 27 27" fill="none" xmlns="http://www.w3.org/2000/svg">
<path d="M19.3749 0.818626L15.1249 5.03569L12.7024 2.61106L11.1724 4.14106L11.9692 4.93794L6.52499 10.3822C5.9064 11.0041 5.55916 11.8457 5.55916 12.7229C5.55916 13.6001 5.9064 14.4416 6.52499 15.0636L8.48424 17.0228L0.547363 24.9246L2.07736 26.4546L9.97811 18.5178L11.9374 20.4749C12.5593 21.0935 13.4008 21.4407 14.278 21.4407C15.1552 21.4407 15.9968 21.0935 16.6187 20.4749L22.0641 15.0296L22.8609 15.8264L24.3909 14.2964L21.9642 11.875L26.1802 7.625L24.6874 6.13113L20.4374 10.3493L16.6517 6.5625L20.8698 2.3125L19.3749 0.818626ZM13.4642 6.42863L20.5702 13.5346L15.1249 18.9821C14.7126 19.3933 13.8435 19.3933 13.4312 18.9821L8.01993 13.5697C7.60768 13.1574 7.60768 12.2883 8.01993 11.8761L13.4642 6.43075V6.42863Z" fill="#5271FF"/>
</svg>
