<svg width="31" height="30" viewBox="0 0 31 30" fill="none" xmlns="http://www.w3.org/2000/svg">
<circle cx="15.0371" cy="15" r="15" fill="#F4932D"/>
<path fill-rule="evenodd" clip-rule="evenodd" d="M12.0328 8.045C12.9392 8.00818 13.2282 8 15.5371 8C17.846 8 18.135 8.00886 19.0407 8.045C19.9463 8.08114 20.5645 8.20864 21.1054 8.39341C21.6718 8.58227 22.1857 8.8775 22.6107 9.25932C23.0434 9.63364 23.3772 10.0864 23.5905 10.5868C23.8007 11.0641 23.9444 11.6095 23.9861 12.4073C24.0278 13.2084 24.0371 13.4634 24.0371 15.5C24.0371 17.5373 24.0271 17.7923 23.9861 18.592C23.9452 19.3898 23.8007 19.9352 23.5905 20.4125C23.3772 20.913 23.0428 21.3665 22.6107 21.7414C22.1857 22.1232 21.6718 22.4177 21.1054 22.6059C20.5645 22.7914 19.9463 22.9182 19.0422 22.955C18.135 22.9918 17.846 23 15.5371 23C13.2282 23 12.9392 22.9911 12.0328 22.955C11.1287 22.9189 10.5105 22.7914 9.96961 22.6059C9.40237 22.4177 8.88843 22.1227 8.46356 21.7414C8.03113 21.3668 7.69649 20.9136 7.48297 20.4132C7.27356 19.9359 7.12984 19.3905 7.08811 18.5927C7.04638 17.7916 7.03711 17.5366 7.03711 15.5C7.03711 13.4627 7.04715 13.2077 7.08811 12.4086C7.12906 11.6095 7.27356 11.0641 7.48297 10.5868C7.6968 10.0864 8.0317 9.63317 8.46434 9.25864C8.8886 8.87716 9.40202 8.58189 9.96884 8.39341C10.5097 8.20864 11.1279 8.08182 12.032 8.045H12.0328ZM18.9719 9.395C18.0755 9.35886 17.8066 9.35136 15.5371 9.35136C13.2676 9.35136 12.9987 9.35886 12.1023 9.395C11.2732 9.42841 10.8235 9.55045 10.5237 9.65341C10.1272 9.78977 9.84365 9.95136 9.54615 10.2139C9.26414 10.4559 9.04711 10.7506 8.91097 11.0764C8.79429 11.3409 8.65597 11.7377 8.61811 12.4693C8.57715 13.2602 8.56865 13.4975 8.56865 15.5C8.56865 17.5025 8.57715 17.7398 8.61811 18.5307C8.65597 19.2623 8.79429 19.6591 8.91097 19.9236C9.04697 20.2489 9.26411 20.5441 9.54615 20.7861C9.82047 21.035 10.1551 21.2266 10.5237 21.3466C10.8235 21.4495 11.2732 21.5716 12.1023 21.605C12.9987 21.6411 13.2668 21.6486 15.5371 21.6486C17.8074 21.6486 18.0755 21.6411 18.9719 21.605C19.801 21.5716 20.2507 21.4495 20.5506 21.3466C20.947 21.2102 21.2306 21.0486 21.5281 20.7861C21.8101 20.5441 22.0272 20.2489 22.1632 19.9236C22.2799 19.6591 22.4182 19.2623 22.4561 18.5307C22.4971 17.7398 22.5056 17.5025 22.5056 15.5C22.5056 13.4975 22.4971 13.2602 22.4561 12.4693C22.4182 11.7377 22.2799 11.3409 22.1632 11.0764C22.0087 10.7266 21.8256 10.4764 21.5281 10.2139C21.2537 9.96505 20.9197 9.77355 20.5506 9.65341C20.2507 9.55045 19.801 9.42841 18.9719 9.395V9.395ZM14.4514 17.812C15.0578 18.0347 15.7329 18.0648 16.3616 17.8971C16.9902 17.7294 17.5334 17.3743 17.8983 16.8924C18.2632 16.4106 18.4272 15.832 18.3622 15.2553C18.2973 14.6786 18.0075 14.1398 17.5423 13.7307C17.2458 13.4692 16.8872 13.269 16.4925 13.1444C16.0977 13.0199 15.6765 12.9741 15.2593 13.0104C14.8421 13.0467 14.4392 13.1642 14.0796 13.3544C13.72 13.5446 13.4127 13.8028 13.1798 14.1104C12.9468 14.4179 12.7941 14.7672 12.7325 15.1332C12.6709 15.4991 12.7021 15.8725 12.8237 16.2265C12.9453 16.5805 13.1544 16.9063 13.4358 17.1805C13.7173 17.4547 14.0642 17.6704 14.4514 17.812ZM12.4477 12.7741C12.8534 12.4161 13.3351 12.1322 13.8652 11.9384C14.3952 11.7447 14.9634 11.645 15.5371 11.645C16.1109 11.645 16.679 11.7447 17.2091 11.9384C17.7391 12.1322 18.2208 12.4161 18.6265 12.7741C19.0322 13.1321 19.354 13.557 19.5736 14.0247C19.7931 14.4925 19.9061 14.9938 19.9061 15.5C19.9061 16.0062 19.7931 16.5075 19.5736 16.9753C19.354 17.443 19.0322 17.8679 18.6265 18.2259C17.8071 18.9489 16.6958 19.355 15.5371 19.355C14.3784 19.355 13.2671 18.9489 12.4477 18.2259C11.6284 17.503 11.1681 16.5224 11.1681 15.5C11.1681 14.4776 11.6284 13.497 12.4477 12.7741V12.7741ZM20.8751 12.2191C20.9756 12.1354 21.0561 12.0348 21.1118 11.9232C21.1675 11.8115 21.1972 11.6912 21.1992 11.5693C21.2012 11.4473 21.1755 11.3263 21.1235 11.2133C21.0716 11.1003 20.9944 10.9976 20.8967 10.9114C20.799 10.8252 20.6826 10.7571 20.5546 10.7113C20.4265 10.6654 20.2893 10.6427 20.1511 10.6445C20.0129 10.6463 19.8765 10.6725 19.75 10.7216C19.6235 10.7707 19.5095 10.8417 19.4147 10.9305C19.2302 11.103 19.1292 11.3321 19.1332 11.5693C19.1371 11.8064 19.2456 12.0329 19.4356 12.2006C19.6257 12.3683 19.8824 12.464 20.1511 12.4675C20.4199 12.4709 20.6796 12.3818 20.8751 12.2191V12.2191Z" fill="white"/>
</svg>
