<svg width="31" height="30" viewBox="0 0 31 30" fill="none" xmlns="http://www.w3.org/2000/svg">
<circle cx="15.0371" cy="15" r="15" fill="#F4932D"/>
<path d="M23.0371 10.4255C22.4487 10.6598 21.8084 10.8284 21.1489 10.8941C21.8336 10.5185 22.3464 9.92521 22.591 9.22545C21.9485 9.57833 21.2445 9.82578 20.5105 9.95681C20.2037 9.65402 19.8326 9.4128 19.4204 9.24819C19.0082 9.08357 18.5637 8.99909 18.1146 9.00001C16.2975 9.00001 14.8362 10.3598 14.8362 12.0284C14.8362 12.2627 14.8669 12.497 14.9169 12.7225C12.1961 12.5911 9.76947 11.3911 8.15621 9.55385C7.86225 10.0174 7.70821 10.5451 7.71011 11.0823C7.71011 12.1331 8.28888 13.0598 9.17147 13.6047C8.65135 13.5858 8.1434 13.4538 7.68895 13.2195V13.2568C7.68895 14.7284 8.81574 15.9479 10.3175 16.2284C10.0355 16.296 9.74545 16.3306 9.45413 16.3314C9.24069 16.3314 9.03879 16.3118 8.83497 16.2852C9.2503 17.4852 10.4598 18.3568 11.9 18.3852C10.7732 19.2 9.36183 19.6793 7.82932 19.6793C7.55435 19.6793 7.30054 19.6704 7.03711 19.642C8.49078 20.503 10.2156 21 12.073 21C18.1031 21 21.4027 16.3882 21.4027 12.3852C21.4027 12.2539 21.4027 12.1225 21.3931 11.9911C22.0315 11.5598 22.591 11.0254 23.0371 10.4255Z" fill="white"/>
</svg>
