<svg width="158" height="158" viewBox="0 0 158 158" fill="none" xmlns="http://www.w3.org/2000/svg">
<g filter="url(#filter0_d_346_1030)">
<circle cx="79" cy="79" r="75" fill="white"/>
</g>
<path d="M49.9966 100.919L67.7533 82.9813L77.3491 92.1688L89.077 81.9167L95.6103 88.2867M108.167 60.0417C108.167 58.8814 107.706 57.7686 106.885 56.9481C106.065 56.1276 104.952 55.6667 103.792 55.6667H54.2083C53.0479 55.6667 51.9351 56.1276 51.1147 56.9481C50.2942 57.7686 49.8333 58.8814 49.8333 60.0417V73.1667H108.167V60.0417Z" stroke="#5271FF" stroke-width="2" stroke-linecap="round" stroke-linejoin="round"/>
<path d="M108.167 70.25V97.9584C108.167 99.1187 107.706 100.231 106.885 101.052C106.065 101.872 104.952 102.333 103.792 102.333H61.4999M71.8716 64.4167H98.1216M60.202 64.4167H63.1187M49.8333 70.25V83.375" stroke="#5271FF" stroke-width="2" stroke-linecap="round" stroke-linejoin="round"/>
<defs>
<filter id="filter0_d_346_1030" x="0" y="0" width="158" height="158" filterUnits="userSpaceOnUse" color-interpolation-filters="sRGB">
<feFlood flood-opacity="0" result="BackgroundImageFix"/>
<feColorMatrix in="SourceAlpha" type="matrix" values="0 0 0 0 0 0 0 0 0 0 0 0 0 0 0 0 0 0 127 0" result="hardAlpha"/>
<feOffset/>
<feGaussianBlur stdDeviation="2"/>
<feComposite in2="hardAlpha" operator="out"/>
<feColorMatrix type="matrix" values="0 0 0 0 0 0 0 0 0 0 0 0 0 0 0 0 0 0 0.25 0"/>
<feBlend mode="normal" in2="BackgroundImageFix" result="effect1_dropShadow_346_1030"/>
<feBlend mode="normal" in="SourceGraphic" in2="effect1_dropShadow_346_1030" result="shape"/>
</filter>
</defs>
</svg>
