<svg width="158" height="158" viewBox="0 0 158 158" fill="none" xmlns="http://www.w3.org/2000/svg">
<g filter="url(#filter0_d_349_1035)">
<circle cx="79" cy="79" r="75" fill="white"/>
</g>
<path d="M98.3112 70.8713L89.882 62.4421L83.6841 68.6254L79.5599 64.5188L86.8458 57.2125C87.2794 56.7789 87.7587 56.4659 88.2837 56.2734C88.8068 56.0789 89.3395 55.9817 89.882 55.9817C90.4342 55.9817 90.9787 56.0789 91.5154 56.2734C92.052 56.4659 92.5323 56.7789 92.9562 57.2125L97.4712 61.7275C98.1965 62.4411 98.7283 63.2422 99.0666 64.1309C99.4049 65.0195 99.5741 65.9479 99.5741 66.9163C99.5741 67.5852 99.4701 68.2579 99.262 68.9346C99.054 69.6113 98.737 70.2559 98.3112 70.8684M65.1458 83.0542C64.5333 82.4417 64.227 81.7456 64.227 80.9659C64.227 80.1881 64.5333 79.492 65.1458 78.8775L71.2824 72.7234L75.4037 76.8475L69.1941 83.0542C68.5913 83.6686 67.9205 83.9759 67.1816 83.9759C66.4369 83.9759 65.7583 83.6686 65.1458 83.0542ZM59.6537 103.086C59.2318 102.652 58.9216 102.157 58.7233 101.601C58.5249 101.045 58.4258 100.472 58.4258 99.8804C58.4258 99.2913 58.523 98.7274 58.7174 98.1888C58.908 97.6541 59.2201 97.1699 59.6537 96.7363L79.5599 76.8446L69.2933 66.5604C68.6788 65.9577 68.3804 65.2849 68.3979 64.5421C68.4173 63.8013 68.7333 63.1236 69.3458 62.5092C69.9486 61.8967 70.633 61.5992 71.3991 61.6167C72.1652 61.6361 72.8555 61.9521 73.4699 62.5646L83.6841 72.7788L87.8404 68.6225L94.4904 75.3104C94.8131 75.6313 94.9745 75.9657 94.9745 76.3138C94.9745 76.6618 94.8141 76.9963 94.4933 77.3171C94.1705 77.601 93.8069 77.7245 93.4024 77.6875C92.9999 77.6486 92.5255 77.3939 91.9791 76.9234L65.8749 103.028C65.4413 103.463 64.9649 103.786 64.4458 103.996C63.9286 104.208 63.3802 104.314 62.8008 104.314C62.2213 104.314 61.6604 104.215 61.1179 104.016C60.5754 103.818 60.0873 103.51 59.6537 103.086Z" fill="#5271FF"/>
<defs>
<filter id="filter0_d_349_1035" x="0" y="0" width="158" height="158" filterUnits="userSpaceOnUse" color-interpolation-filters="sRGB">
<feFlood flood-opacity="0" result="BackgroundImageFix"/>
<feColorMatrix in="SourceAlpha" type="matrix" values="0 0 0 0 0 0 0 0 0 0 0 0 0 0 0 0 0 0 127 0" result="hardAlpha"/>
<feOffset/>
<feGaussianBlur stdDeviation="2"/>
<feComposite in2="hardAlpha" operator="out"/>
<feColorMatrix type="matrix" values="0 0 0 0 0 0 0 0 0 0 0 0 0 0 0 0 0 0 0.25 0"/>
<feBlend mode="normal" in2="BackgroundImageFix" result="effect1_dropShadow_349_1035"/>
<feBlend mode="normal" in="SourceGraphic" in2="effect1_dropShadow_349_1035" result="shape"/>
</filter>
</defs>
</svg>
